<?xml version="1.0" encoding="UTF-8" standalone="no"?>
<!-- Created with Inkscape (http://www.inkscape.org/) -->

<svg
   width="185"
   height="185"
   viewBox="0 0 48.947916 48.947918"
   version="1.1"
   id="svg1264"
   inkscape:version="1.1.2 (b8e25be833, 2022-02-05)"
   sodipodi:docname="cell4096.svg"
   xmlns:inkscape="http://www.inkscape.org/namespaces/inkscape"
   xmlns:sodipodi="http://sodipodi.sourceforge.net/DTD/sodipodi-0.dtd"
   xmlns="http://www.w3.org/2000/svg"
   xmlns:svg="http://www.w3.org/2000/svg">
  <sodipodi:namedview
     id="namedview1266"
     pagecolor="#505050"
     bordercolor="#ffffff"
     borderopacity="1"
     inkscape:pageshadow="0"
     inkscape:pageopacity="0"
     inkscape:pagecheckerboard="1"
     inkscape:document-units="mm"
     showgrid="false"
     inkscape:snap-page="false"
     units="px"
     width="184.909px"
     inkscape:zoom="2.5620932"
     inkscape:cx="76.695102"
     inkscape:cy="105.57774"
     inkscape:window-width="1680"
     inkscape:window-height="998"
     inkscape:window-x="-8"
     inkscape:window-y="-8"
     inkscape:window-maximized="1"
     inkscape:current-layer="layer1"
     inkscape:snap-object-midpoints="true"
     showguides="true"
     inkscape:guide-bbox="true"
     inkscape:snap-bbox="true"
     inkscape:snap-bbox-midpoints="true" />
  <defs
     id="defs1261" />
  <g
     inkscape:label="Слой 1"
     inkscape:groupmode="layer"
     id="layer1"
     transform="translate(0.17313566,0.17313566)">
    <rect
       style="display:inline;fill:#4eff00;fill-opacity:1;stroke:#000000;stroke-width:0.346441;stroke-linejoin:round;stroke-miterlimit:4;stroke-dasharray:none;stroke-opacity:1;paint-order:fill markers stroke"
       id="rect1608-06"
       width="48.601475"
       height="48.601475"
       x="8.4843035e-05"
       y="8.4843035e-05"
       ry="10.260313" />
    <g
       aria-label="4096 "
       id="text5386"
       style="font-size:19.4266px;line-height:1.25;stroke-width:0.485666"
       transform="matrix(1.00049,0,0,1.00049,8.4843035e-5,8.4843035e-5)">
      <path
         d="M 11.160704,27.37167 H 9.0643766 v 3.974485 H 7.2431329 V 27.37167 H 0.47986854 V 25.189972 L 7.3190181,17.222031 h 1.7453585 v 8.631936 H 11.160704 Z M 7.2431329,25.853967 v -6.374353 l -5.4732167,6.374353 z"
         id="path2950" />
      <path
         d="m 23.169529,24.27935 q 0,3.803744 -1.195191,5.587045 -1.185705,1.773815 -3.689916,1.773815 -2.542152,0 -3.718372,-1.802272 -1.166734,-1.802273 -1.166734,-5.539617 0,-3.7658 1.185705,-5.558587 1.185706,-1.802273 3.699401,-1.802273 2.542153,0 3.708887,1.83073 1.17622,1.821244 1.17622,5.511159 z m -2.494724,4.306483 q 0.331997,-0.768338 0.445825,-1.802273 0.123313,-1.043421 0.123313,-2.50421 0,-1.441818 -0.123313,-2.50421 -0.113828,-1.062392 -0.455311,-1.802272 -0.331997,-0.730395 -0.910622,-1.100335 -0.569138,-0.36994 -1.470275,-0.36994 -0.89165,0 -1.47976,0.36994 -0.578624,0.36994 -0.920108,1.119306 -0.322511,0.701938 -0.445825,1.830729 -0.113828,1.128792 -0.113828,2.475753 0,1.479761 0.104342,2.475754 0.104343,0.995992 0.445826,1.783301 0.313026,0.73988 0.882165,1.128791 0.578624,0.388912 1.527188,0.388912 0.891651,0 1.479761,-0.36994 0.58811,-0.36994 0.910622,-1.119306 z"
         id="path2952" />
      <path
         d="m 35.519838,23.435128 q 0,1.8497 -0.426854,3.357918 -0.417369,1.508217 -1.271077,2.57061 -0.863193,1.081363 -2.162727,1.669473 -1.299533,0.58811 -3.054377,0.58811 -0.493254,0 -0.929593,-0.05691 -0.43634,-0.04743 -0.777823,-0.161256 v -1.811758 h 0.09486 q 0.275084,0.142285 0.777823,0.275084 0.502739,0.123313 1.119306,0.123313 2.096328,0 3.282033,-1.252105 1.195191,-1.261591 1.384904,-3.471746 -0.882165,0.531196 -1.659987,0.758852 -0.777823,0.227655 -1.697931,0.227655 -0.872679,0 -1.584102,-0.170741 -0.701938,-0.170742 -1.413361,-0.663996 -0.834737,-0.578624 -1.261591,-1.470274 -0.417368,-0.891651 -0.417368,-2.13427 0,-2.162727 1.422846,-3.519174 1.422847,-1.356448 3.471746,-1.356448 1.02445,0 1.897129,0.322512 0.872679,0.313027 1.527189,0.948565 0.806279,0.787308 1.242619,2.029928 0.43634,1.233133 0.43634,3.196662 z m -1.9161,-0.407883 q 0,-1.470275 -0.303541,-2.361925 -0.303541,-0.891651 -0.834737,-1.384904 -0.445825,-0.426854 -0.95805,-0.607082 -0.512225,-0.189712 -1.10982,-0.189712 -1.365933,0 -2.162727,0.853707 -0.787309,0.853708 -0.787309,2.399869 0,0.901136 0.256113,1.470274 0.256112,0.569139 0.863193,0.995993 0.426854,0.294055 0.939079,0.398397 0.512225,0.09486 1.138277,0.09486 0.739881,0 1.498732,-0.199199 0.758852,-0.199199 1.422847,-0.578624 0.0095,-0.199199 0.01897,-0.388912 0.01897,-0.199198 0.01897,-0.502739 z"
         id="path2954" />
      <path
         d="m 48.097802,26.764589 q 0,2.153241 -1.422846,3.519174 -1.413361,1.356447 -3.471746,1.356447 -1.043421,0 -1.897129,-0.322512 -0.853708,-0.322512 -1.508217,-0.95805 -0.815766,-0.787308 -1.261591,-2.086842 -0.43634,-1.299533 -0.43634,-3.130262 0,-1.878158 0.398397,-3.329461 0.407883,-1.451304 1.290048,-2.580096 0.834737,-1.071877 2.153241,-1.669473 1.318505,-0.607081 3.073349,-0.607081 0.559653,0 0.939079,0.04743 0.379426,0.04743 0.768337,0.170742 v 1.811758 h -0.09486 q -0.265598,-0.142285 -0.80628,-0.265598 -0.531196,-0.132799 -1.090849,-0.132799 -2.039414,0 -3.253576,1.280562 -1.214163,1.271076 -1.413361,3.443288 0.796794,-0.483767 1.565131,-0.730394 0.777823,-0.256113 1.792787,-0.256113 0.901136,0 1.584102,0.170742 0.692452,0.161256 1.413361,0.663995 0.834737,0.578624 1.252105,1.460789 0.426854,0.882165 0.426854,2.143756 z m -1.925585,0.07588 q 0,-0.882165 -0.265598,-1.460789 -0.256113,-0.578624 -0.853708,-1.005478 -0.43634,-0.303541 -0.967536,-0.398397 -0.531196,-0.09486 -1.10982,-0.09486 -0.80628,0 -1.498732,0.189713 -0.692452,0.189713 -1.422847,0.58811 -0.01897,0.208684 -0.02846,0.407883 -0.0095,0.189713 -0.0095,0.483768 0,1.498731 0.30354,2.371411 0.313026,0.863193 0.853708,1.365932 0.43634,0.417369 0.939079,0.616567 0.512225,0.189713 1.10982,0.189713 1.375419,0 2.162727,-0.834737 0.787309,-0.844222 0.787309,-2.418839 z"
         id="path2956" />
    </g>
  </g>
</svg>
