<?xml version="1.0" encoding="UTF-8" standalone="no"?>
<!-- Created with Inkscape (http://www.inkscape.org/) -->

<svg
   width="185"
   height="185"
   viewBox="0 0 48.947916 48.947918"
   version="1.1"
   id="svg1264"
   inkscape:version="1.1.2 (b8e25be833, 2022-02-05)"
   sodipodi:docname="cell8192.svg"
   xmlns:inkscape="http://www.inkscape.org/namespaces/inkscape"
   xmlns:sodipodi="http://sodipodi.sourceforge.net/DTD/sodipodi-0.dtd"
   xmlns="http://www.w3.org/2000/svg"
   xmlns:svg="http://www.w3.org/2000/svg">
  <sodipodi:namedview
     id="namedview1266"
     pagecolor="#505050"
     bordercolor="#ffffff"
     borderopacity="1"
     inkscape:pageshadow="0"
     inkscape:pageopacity="0"
     inkscape:pagecheckerboard="1"
     inkscape:document-units="mm"
     showgrid="false"
     inkscape:snap-page="false"
     units="px"
     width="184.909px"
     inkscape:zoom="2.5620932"
     inkscape:cx="76.695102"
     inkscape:cy="105.57774"
     inkscape:window-width="1680"
     inkscape:window-height="998"
     inkscape:window-x="-8"
     inkscape:window-y="-8"
     inkscape:window-maximized="1"
     inkscape:current-layer="layer1"
     inkscape:snap-object-midpoints="true"
     showguides="true"
     inkscape:guide-bbox="true"
     inkscape:snap-bbox="true"
     inkscape:snap-bbox-midpoints="true" />
  <defs
     id="defs1261" />
  <g
     inkscape:label="Слой 1"
     inkscape:groupmode="layer"
     id="layer1"
     transform="translate(0.17313566,0.17313566)">
    <rect
       style="display:inline;fill:#ff6e8d;fill-opacity:1;stroke:#000000;stroke-width:0.346441;stroke-linejoin:round;stroke-miterlimit:4;stroke-dasharray:none;stroke-opacity:1;paint-order:fill markers stroke"
       id="rect1608-06"
       width="48.601475"
       height="48.601475"
       x="8.4843035e-05"
       y="8.4843035e-05"
       ry="10.260313" />
    <g
       aria-label="8192 "
       id="text5386"
       style="font-size:19.4266px;line-height:1.25;stroke-width:0.485666"
       transform="matrix(1.00049,0,0,1.00049,8.4843035e-5,8.4843035e-5)">
      <path
         d="m 10.833449,27.414354 q 0,1.83073 -1.432332,3.044892 -1.4228466,1.214163 -3.5855735,1.214163 -2.295526,0 -3.6614587,-1.185706 -1.35644717,-1.185705 -1.35644717,-3.035406 0,-1.17622 0.68296637,-2.124784 0.6829664,-0.95805 1.9255858,-1.517703 V 23.7529 Q 2.2679125,23.145815 1.7177451,22.424906 1.1770634,21.703997 1.1770634,20.622633 q 0,-1.593588 1.3090189,-2.65598 1.3090189,-1.062392 3.3294612,-1.062392 2.1152986,0 3.3768893,1.014964 1.2615912,1.014963 1.2615912,2.580095 0,0.95805 -0.5975961,1.887643 -0.5975956,0.920107 -1.7548442,1.441818 v 0.05691 q 1.3279902,0.569138 2.0299283,1.403875 0.701937,0.834737 0.701937,2.124784 z M 8.5853516,20.518291 q 0,-1.014964 -0.7873085,-1.612559 -0.7778228,-0.607082 -1.9919853,-0.607082 -1.1951912,0 -1.9635284,0.569139 -0.7588515,0.569139 -0.7588515,1.536674 0,0.682967 0.3794258,1.185706 0.3889114,0.493253 1.1667342,0.882165 0.3509689,0.170741 1.0054783,0.445825 0.6639951,0.275084 1.2900476,0.455311 0.9390788,-0.626053 1.2995333,-1.299533 0.3604545,-0.673481 0.3604545,-1.555646 z m 0.294055,7.076291 q 0,-0.87268 -0.3889115,-1.39439 Q 8.1110694,25.668996 6.9917633,25.1378 6.5459381,24.929116 6.014742,24.748888 5.4835459,24.568661 4.601381,24.246149 3.747673,24.710946 3.2259626,25.50774 q -0.5122248,0.796794 -0.5122248,1.802272 0,1.280562 0.8821649,2.115299 0.8821649,0.834737 2.238612,0.834737 1.3849041,0 2.2101552,-0.711424 0.8347367,-0.711423 0.8347367,-1.954042 z"
         id="path3180" />
      <path
         d="m 22.273136,31.350897 h -7.645429 v -1.441818 h 2.940549 v -9.466673 h -2.940549 v -1.290048 q 0.597595,0 1.280562,-0.09486 0.682966,-0.104342 1.033935,-0.294055 0.436339,-0.237141 0.682966,-0.597596 0.256113,-0.36994 0.294055,-0.986507 H 19.3895 v 12.729735 h 2.883636 z"
         id="path3182" />
      <path
         d="m 35.410753,23.439869 q 0,1.849701 -0.426854,3.357919 -0.417369,1.508217 -1.271077,2.570609 -0.863193,1.081364 -2.162726,1.669474 -1.299534,0.58811 -3.054378,0.58811 -0.493253,0 -0.929593,-0.05691 -0.43634,-0.04743 -0.777823,-0.161256 v -1.811758 h 0.09486 q 0.275083,0.142284 0.777822,0.275083 0.50274,0.123314 1.119306,0.123314 2.096328,0 3.282033,-1.252105 1.195191,-1.261591 1.384904,-3.471746 -0.882165,0.531196 -1.659987,0.758851 -0.777823,0.227656 -1.697931,0.227656 -0.872679,0 -1.584102,-0.170742 -0.701938,-0.170741 -1.413361,-0.663995 -0.834737,-0.578624 -1.261591,-1.470275 -0.417368,-0.89165 -0.417368,-2.13427 0,-2.162727 1.422846,-3.519174 1.422847,-1.356447 3.471746,-1.356447 1.02445,0 1.897129,0.322512 0.872679,0.313026 1.527189,0.948564 0.806279,0.787309 1.242619,2.029928 0.43634,1.233134 0.43634,3.196662 z m -1.9161,-0.407882 q 0,-1.470275 -0.303541,-2.361926 -0.303541,-0.89165 -0.834737,-1.384904 -0.445825,-0.426854 -0.95805,-0.607081 -0.512225,-0.189713 -1.10982,-0.189713 -1.365933,0 -2.162727,0.853708 -0.787309,0.853708 -0.787309,2.399868 0,0.901136 0.256113,1.470275 0.256112,0.569139 0.863193,0.995993 0.426854,0.294055 0.939079,0.398397 0.512225,0.09486 1.138278,0.09486 0.73988,0 1.498731,-0.199198 0.758852,-0.199199 1.422847,-0.578625 0.0095,-0.199198 0.01897,-0.388911 0.01897,-0.199199 0.01897,-0.502739 z"
         id="path3184" />
      <path
         d="m 47.780033,31.350897 h -9.561529 v -1.9825 q 0.995993,-0.853708 1.991985,-1.707416 1.005479,-0.853708 1.868672,-1.69793 1.821244,-1.76433 2.494725,-2.798265 0.67348,-1.043421 0.67348,-2.248098 0,-1.100335 -0.730394,-1.716901 -0.720909,-0.626053 -2.020442,-0.626053 -0.863194,0 -1.868672,0.303541 -1.005479,0.30354 -1.963529,0.929593 h -0.09486 v -1.991986 q 0.673481,-0.331997 1.792787,-0.607081 1.128791,-0.275083 2.181698,-0.275083 2.172212,0 3.405346,1.052906 1.233134,1.043421 1.233134,2.836208 0,0.806279 -0.208684,1.508217 -0.199199,0.692452 -0.597596,1.318505 -0.36994,0.58811 -0.872679,1.157248 -0.493254,0.569139 -1.204677,1.261591 -1.014964,0.995993 -2.096327,1.935071 -1.081364,0.929594 -2.020443,1.726388 h 7.598001 z"
         id="path3186" />
    </g>
  </g>
</svg>
