<?xml version="1.0" encoding="UTF-8" standalone="no"?>
<!-- Created with Inkscape (http://www.inkscape.org/) -->

<svg
   width="185"
   height="185"
   viewBox="0 0 48.947916 48.947918"
   version="1.1"
   id="svg1264"
   inkscape:version="1.1.2 (b8e25be833, 2022-02-05)"
   sodipodi:docname="cell32768.svg"
   xmlns:inkscape="http://www.inkscape.org/namespaces/inkscape"
   xmlns:sodipodi="http://sodipodi.sourceforge.net/DTD/sodipodi-0.dtd"
   xmlns="http://www.w3.org/2000/svg"
   xmlns:svg="http://www.w3.org/2000/svg">
  <sodipodi:namedview
     id="namedview1266"
     pagecolor="#505050"
     bordercolor="#ffffff"
     borderopacity="1"
     inkscape:pageshadow="0"
     inkscape:pageopacity="0"
     inkscape:pagecheckerboard="1"
     inkscape:document-units="mm"
     showgrid="false"
     inkscape:snap-page="false"
     units="px"
     width="184.909px"
     inkscape:zoom="2.5620932"
     inkscape:cx="77.085408"
     inkscape:cy="105.57774"
     inkscape:window-width="1680"
     inkscape:window-height="998"
     inkscape:window-x="-8"
     inkscape:window-y="-8"
     inkscape:window-maximized="1"
     inkscape:current-layer="layer1"
     inkscape:snap-object-midpoints="true"
     showguides="true"
     inkscape:guide-bbox="true"
     inkscape:snap-bbox="true"
     inkscape:snap-bbox-midpoints="true" />
  <defs
     id="defs1261" />
  <g
     inkscape:label="Слой 1"
     inkscape:groupmode="layer"
     id="layer1"
     transform="translate(0.17313566,0.17313566)">
    <rect
       style="display:inline;fill:#ff264b;fill-opacity:1;stroke:#000000;stroke-width:0.346441;stroke-linejoin:round;stroke-miterlimit:4;stroke-dasharray:none;stroke-opacity:1;paint-order:fill markers stroke"
       id="rect1608-06"
       width="48.601475"
       height="48.601475"
       x="8.4843035e-05"
       y="8.4843035e-05"
       ry="10.260313" />
    <g
       aria-label="32768 "
       id="text5386"
       style="font-size:15.7372px;line-height:1.25;stroke-width:0.393431"
       transform="matrix(1.00049,0,0,1.00049,8.4843035e-5,8.4843035e-5)">
      <path
         d="m 7.0801155,24.50015 q 0.3688406,0.330419 0.6070502,0.829891 0.2382095,0.499472 0.2382095,1.290942 0,0.783787 -0.2843146,1.436942 -0.2843146,0.653155 -0.7991547,1.137258 -0.5763134,0.537893 -1.3600998,0.799155 -0.7761021,0.253578 -1.7058878,0.253578 -0.9528383,0 -1.8749398,-0.230525 Q 0.97887691,29.794549 0.38719508,29.525603 V 27.91961 h 0.11526269 q 0.65315523,0.430314 1.53683593,0.714628 0.8836806,0.284315 1.7058879,0.284315 0.4841033,0 1.02968,-0.161368 0.5455768,-0.161368 0.8836807,-0.476419 0.3534722,-0.338104 0.5225242,-0.745365 0.1767361,-0.407262 0.1767361,-1.02968 0,-0.614735 -0.1997887,-1.014312 Q 5.9659095,25.084147 5.6201214,24.853622 5.2743333,24.615412 4.7825458,24.530886 4.2907583,24.438676 3.722129,24.438676 H 3.0305529 v -1.275574 h 0.5378925 q 1.1679953,0 1.8595715,-0.484103 0.6992603,-0.491787 0.6992603,-1.429257 0,-0.414946 -0.1767361,-0.722313 Q 5.773805,20.212378 5.4587536,20.012589 5.1283339,19.8128 4.7518091,19.735958 q -0.3765248,-0.07684 -0.852944,-0.07684 -0.729997,0 -1.5522042,0.261262 -0.8222072,0.261262 -1.5522043,0.737681 H 0.7176148 v -1.605994 q 0.5455768,-0.268946 1.4523099,-0.491787 0.9144174,-0.230525 1.7673613,-0.230525 0.8375756,0 1.4753625,0.153683 0.6377869,0.153684 1.152627,0.491788 0.5532609,0.36884 0.8375755,0.891364 0.2843147,0.522525 0.2843147,1.221785 0,0.952838 -0.6762078,1.667467 -0.6685236,0.706944 -1.582941,0.891365 v 0.107578 q 0.3688406,0.06147 0.8452597,0.261262 0.4764192,0.192105 0.8068389,0.484103 z"
         id="path3523" />
      <path
         d="m 18.091545,30.009706 h -7.745653 v -1.605993 q 0.806839,-0.691576 1.613677,-1.383152 0.814524,-0.691577 1.513784,-1.375469 1.475362,-1.429257 2.020939,-2.266832 0.545577,-0.84526 0.545577,-1.821151 0,-0.891365 -0.591682,-1.390837 -0.583998,-0.507155 -1.63673,-0.507155 -0.699261,0 -1.513784,0.245893 -0.814523,0.245894 -1.590625,0.75305 h -0.07684 v -1.613678 q 0.545577,-0.268946 1.45231,-0.491787 0.914418,-0.222841 1.767362,-0.222841 1.759677,0 2.75862,0.852943 0.998943,0.84526 0.998943,2.29757 0,0.653155 -0.169051,1.221785 -0.161368,0.560945 -0.484104,1.068101 -0.299683,0.476419 -0.706944,0.93747 -0.399578,0.46105 -0.975891,1.021995 -0.822207,0.806839 -1.698204,1.567573 -0.875996,0.75305 -1.63673,1.398521 h 6.155028 z"
         id="path3525" />
      <path
         d="m 28.127083,20.281535 -5.179137,9.728171 h -1.644414 l 5.509557,-10.097011 h -6.516185 v -1.344732 h 7.830179 z"
         id="path3527" />
      <path
         d="m 38.270199,26.298248 q 0,1.744309 -1.152627,2.85083 -1.144942,1.098838 -2.812409,1.098838 -0.84526,0 -1.536836,-0.261262 -0.691576,-0.261262 -1.221785,-0.776102 -0.660839,-0.637787 -1.021996,-1.69052 -0.353472,-1.052732 -0.353472,-2.535779 0,-1.521468 0.322736,-2.697147 0.330419,-1.175679 1.045048,-2.090097 0.676208,-0.868312 1.744309,-1.352415 1.068101,-0.491788 2.489674,-0.491788 0.453366,0 0.760734,0.03842 0.307367,0.03842 0.622418,0.138315 v 1.467679 h -0.07684 q -0.215157,-0.115263 -0.653155,-0.215158 -0.430314,-0.107578 -0.88368,-0.107578 -1.652099,0 -2.635674,1.037364 -0.983575,1.02968 -1.144943,2.789357 0.645471,-0.391893 1.26789,-0.591681 0.630103,-0.207473 1.45231,-0.207473 0.729997,0 1.283258,0.138315 0.560945,0.130631 1.144942,0.537893 0.676208,0.468734 1.014312,1.183363 0.345788,0.714629 0.345788,1.736625 z m -1.559888,0.06147 q 0,-0.714629 -0.215157,-1.183363 -0.207473,-0.468735 -0.691576,-0.814523 -0.353473,-0.245894 -0.783787,-0.322736 -0.430314,-0.07684 -0.899049,-0.07684 -0.653155,0 -1.2141,0.153684 -0.560945,0.153683 -1.152627,0.476419 -0.01537,0.169052 -0.02305,0.33042 -0.0077,0.153683 -0.0077,0.391893 0,1.2141 0.245894,1.921045 0.253578,0.69926 0.691576,1.106522 0.353472,0.338103 0.760734,0.499471 0.414946,0.153684 0.899049,0.153684 1.114206,0 1.751993,-0.676208 0.637787,-0.683892 0.637787,-1.959466 z"
         id="path3529" />
      <path
         d="m 48.190476,26.820772 q 0,1.483047 -1.160311,2.466622 -1.152627,0.983575 -2.90462,0.983575 -1.859571,0 -2.966093,-0.960523 -1.098838,-0.960522 -1.098838,-2.458937 0,-0.952839 0.553261,-1.721257 0.553261,-0.776102 1.559888,-1.229468 v -0.04611 q -0.922101,-0.491788 -1.367784,-1.075785 -0.437998,-0.583998 -0.437998,-1.459995 0,-1.290942 1.060417,-2.15157 1.060417,-0.860628 2.697147,-0.860628 1.713572,0 2.735568,0.822207 1.021996,0.822207 1.021996,2.090097 0,0.776102 -0.484104,1.529152 -0.484103,0.745365 -1.421573,1.167995 v 0.04611 q 1.075785,0.461051 1.644415,1.137259 0.568629,0.676208 0.568629,1.721256 z m -1.821151,-5.586399 q 0,-0.822207 -0.637786,-1.30631 -0.630103,-0.491788 -1.613678,-0.491788 -0.968207,0 -1.590625,0.461051 -0.614735,0.461051 -0.614735,1.244837 0,0.553261 0.307367,0.960523 0.315052,0.399577 0.945155,0.714628 0.284314,0.138316 0.814523,0.361157 0.537892,0.222841 1.045048,0.36884 0.760734,-0.507155 1.052733,-1.052732 0.291998,-0.545577 0.291998,-1.260206 z m 0.23821,5.732398 q 0,-0.706944 -0.315051,-1.129574 -0.307368,-0.430314 -1.214101,-0.860628 -0.361156,-0.169052 -0.79147,-0.315051 -0.430314,-0.146 -1.144943,-0.407262 -0.691576,0.376525 -1.114206,1.021996 -0.414946,0.645471 -0.414946,1.459994 0,1.037364 0.714629,1.713572 0.714629,0.676208 1.813466,0.676208 1.121891,0 1.790414,-0.576314 0.676208,-0.576313 0.676208,-1.582941 z"
         id="path3531" />
    </g>
  </g>
</svg>
