<?xml version="1.0" encoding="UTF-8" standalone="no"?>
<!-- Created with Inkscape (http://www.inkscape.org/) -->

<svg
   width="185"
   height="185"
   viewBox="0 0 48.947916 48.947918"
   version="1.1"
   id="svg1264"
   inkscape:version="1.1.2 (b8e25be833, 2022-02-05)"
   sodipodi:docname="cell256.svg"
   xmlns:inkscape="http://www.inkscape.org/namespaces/inkscape"
   xmlns:sodipodi="http://sodipodi.sourceforge.net/DTD/sodipodi-0.dtd"
   xmlns="http://www.w3.org/2000/svg"
   xmlns:svg="http://www.w3.org/2000/svg">
  <sodipodi:namedview
     id="namedview1266"
     pagecolor="#505050"
     bordercolor="#ffffff"
     borderopacity="1"
     inkscape:pageshadow="0"
     inkscape:pageopacity="0"
     inkscape:pagecheckerboard="1"
     inkscape:document-units="mm"
     showgrid="false"
     inkscape:snap-page="false"
     units="px"
     width="184.909px"
     inkscape:zoom="2.5620932"
     inkscape:cx="77.085408"
     inkscape:cy="105.57774"
     inkscape:window-width="1680"
     inkscape:window-height="998"
     inkscape:window-x="-8"
     inkscape:window-y="-8"
     inkscape:window-maximized="1"
     inkscape:current-layer="layer1"
     inkscape:snap-object-midpoints="true"
     showguides="true"
     inkscape:guide-bbox="true"
     inkscape:snap-bbox="true"
     inkscape:snap-bbox-midpoints="true" />
  <defs
     id="defs1261" />
  <g
     inkscape:label="Слой 1"
     inkscape:groupmode="layer"
     id="layer1"
     transform="translate(0.17313566,0.17313566)">
    <rect
       style="display:inline;fill:#da70ba;fill-opacity:1;stroke:#000000;stroke-width:0.346441;stroke-linejoin:round;stroke-miterlimit:4;stroke-dasharray:none;stroke-opacity:1;paint-order:fill markers stroke"
       id="rect1608-06"
       width="48.601475"
       height="48.601475"
       x="8.4843035e-05"
       y="8.4843035e-05"
       ry="10.260313" />
    <g
       aria-label="256"
       id="text5386"
       style="font-size:26.4549px;line-height:1.25;stroke-width:0.661372"
       transform="matrix(1.00049,0,0,1.00049,8.4843035e-5,8.4843035e-5)">
      <path
         d="M 13.838633,33.905865 H 0.81786132 V 31.206121 Q 2.1741917,30.043553 3.530522,28.880984 q 1.3692478,-1.162569 2.5447341,-2.312221 2.480147,-2.402642 3.3972847,-3.810642 0.9171372,-1.420918 0.9171372,-3.061431 0,-1.498423 -0.9946418,-2.338056 -0.9817249,-0.85255 -2.751413,-0.85255 -1.1754864,0 -2.5447341,0.413358 -1.3692478,0.413357 -2.6739085,1.265908 H 1.2958063 v -2.712661 q 0.9171377,-0.45211 2.4413947,-0.826715 1.5371744,-0.374606 2.9710093,-0.374606 2.9580919,0 4.6373577,1.433835 1.679267,1.420918 1.679267,3.862312 0,1.097982 -0.284184,2.053872 -0.271266,0.942972 -0.813798,1.795523 -0.50378,0.800881 -1.188404,1.575927 -0.671706,0.775046 -1.6405138,1.718018 Q 7.71577,28.067185 6.2431828,29.346011 4.7705955,30.61192 3.4917697,31.696984 H 13.838633 Z"
         id="path2082" />
      <path
         d="m 30.50212,27.795919 q 0,1.343413 -0.490862,2.570569 -0.490863,1.227156 -1.343413,2.066789 -0.930055,0.904221 -2.221798,1.395083 -1.278826,0.477945 -2.97101,0.477945 -1.575926,0 -3.035596,-0.335853 -1.45967,-0.322936 -2.46723,-0.787963 V 30.45691 h 0.180844 q 1.05923,0.671707 2.480147,1.149652 1.420918,0.465027 2.790166,0.465027 0.917137,0 1.769688,-0.258348 0.865468,-0.258349 1.537174,-0.904221 0.568367,-0.555449 0.852551,-1.330495 0.297101,-0.775046 0.297101,-1.795523 0,-0.994642 -0.348771,-1.679266 -0.335853,-0.684624 -0.942973,-1.097982 -0.671706,-0.490862 -1.640513,-0.684624 -0.95589,-0.206679 -2.144294,-0.206679 -1.136734,0 -2.195964,0.155009 -1.046312,0.15501 -1.80844,0.310019 v -9.907671 h 11.574019 v 2.260551 h -9.080955 v 5.115303 q 0.55545,-0.05167 1.136734,-0.0775 0.581285,-0.02584 1.00756,-0.02584 1.563009,0 2.738496,0.271266 1.175486,0.258348 2.157211,0.930055 1.033394,0.710459 1.601761,1.834275 0.568367,1.123817 0.568367,2.816001 z"
         id="path2084" />
      <path
         d="m 47.75981,27.666745 q 0,2.932257 -1.937615,4.792367 -1.924697,1.847193 -4.72778,1.847193 -1.420918,0 -2.583487,-0.439193 -1.162569,-0.439192 -2.053871,-1.30466 -1.110899,-1.072147 -1.718019,-2.841835 -0.594202,-1.769688 -0.594202,-4.262753 0,-2.557651 0.542533,-4.534018 0.555449,-1.976368 1.75677,-3.513542 1.136734,-1.45967 2.932257,-2.273468 1.795523,-0.826716 4.185248,-0.826716 0.762129,0 1.278826,0.06459 0.516697,0.06459 1.046312,0.232513 v 2.46723 h -0.129174 q -0.361688,-0.193762 -1.097982,-0.361688 -0.723376,-0.180844 -1.485505,-0.180844 -2.777248,0 -4.430679,1.743853 -1.653431,1.730936 -1.924697,4.689028 1.085064,-0.658789 2.131376,-0.994642 1.059229,-0.348771 2.441395,-0.348771 1.227156,0 2.157211,0.232514 0.942972,0.219596 1.924697,0.90422 1.136734,0.787963 1.705101,1.989284 0.581285,1.201322 0.581285,2.91934 z m -2.622239,0.10334 q 0,-1.201322 -0.361688,-1.989285 -0.348771,-0.787963 -1.162569,-1.369248 -0.594202,-0.413358 -1.317578,-0.542532 -0.723376,-0.129174 -1.51134,-0.129174 -1.097981,0 -2.040954,0.258348 -0.942972,0.258349 -1.937615,0.800881 -0.02584,0.284184 -0.03875,0.55545 -0.01292,0.258348 -0.01292,0.658789 0,2.040954 0.413357,3.229358 0.426276,1.175486 1.162569,1.86011 0.594202,0.568367 1.278826,0.839633 0.697541,0.258349 1.51134,0.258349 1.873027,0 2.945174,-1.136734 1.072147,-1.149652 1.072148,-3.293945 z"
         id="path2086" />
    </g>
  </g>
</svg>
