<?xml version="1.0" encoding="UTF-8" standalone="no"?>
<!-- Created with Inkscape (http://www.inkscape.org/) -->

<svg
   width="185"
   height="185"
   viewBox="0 0 48.947916 48.947918"
   version="1.1"
   id="svg1264"
   inkscape:version="1.1.2 (b8e25be833, 2022-02-05)"
   sodipodi:docname="cell16384.svg"
   xmlns:inkscape="http://www.inkscape.org/namespaces/inkscape"
   xmlns:sodipodi="http://sodipodi.sourceforge.net/DTD/sodipodi-0.dtd"
   xmlns="http://www.w3.org/2000/svg"
   xmlns:svg="http://www.w3.org/2000/svg">
  <sodipodi:namedview
     id="namedview1266"
     pagecolor="#505050"
     bordercolor="#ffffff"
     borderopacity="1"
     inkscape:pageshadow="0"
     inkscape:pageopacity="0"
     inkscape:pagecheckerboard="1"
     inkscape:document-units="mm"
     showgrid="false"
     inkscape:snap-page="false"
     units="px"
     width="184.909px"
     inkscape:zoom="2.5620932"
     inkscape:cx="77.085408"
     inkscape:cy="105.57774"
     inkscape:window-width="1680"
     inkscape:window-height="998"
     inkscape:window-x="-8"
     inkscape:window-y="-8"
     inkscape:window-maximized="1"
     inkscape:current-layer="layer1"
     inkscape:snap-object-midpoints="true"
     showguides="true"
     inkscape:guide-bbox="true"
     inkscape:snap-bbox="true"
     inkscape:snap-bbox-midpoints="true" />
  <defs
     id="defs1261" />
  <g
     inkscape:label="Слой 1"
     inkscape:groupmode="layer"
     id="layer1"
     transform="translate(0.17313566,0.17313566)">
    <rect
       style="display:inline;fill:#ff434b;fill-opacity:1;stroke:#000000;stroke-width:0.346441;stroke-linejoin:round;stroke-miterlimit:4;stroke-dasharray:none;stroke-opacity:1;paint-order:fill markers stroke"
       id="rect1608-06"
       width="48.601475"
       height="48.601475"
       x="8.4843035e-05"
       y="8.4843035e-05"
       ry="10.260313" />
    <g
       aria-label="16384 "
       id="text5386"
       style="font-size:15.7372px;line-height:1.25;stroke-width:0.393431"
       transform="matrix(1.00049,0,0,1.00049,8.4843035e-5,8.4843035e-5)">
      <path
         d="M 6.9187477,30.009706 H 0.72529895 V 28.841711 H 3.1073946 V 21.1729 H 0.72529895 v -1.045048 q 0.48410335,0 1.03736425,-0.07684 0.5532609,-0.08453 0.8375756,-0.23821 0.3534722,-0.192104 0.5532609,-0.484103 0.2074728,-0.299683 0.2382096,-0.799155 h 1.1910478 v 10.312169 h 2.3359906 z"
         id="path3290" />
      <path
         d="m 17.745757,26.298248 q 0,1.744309 -1.152627,2.85083 -1.144943,1.098838 -2.81241,1.098838 -0.84526,0 -1.536836,-0.261262 Q 11.552308,29.725392 11.0221,29.210552 10.36126,28.572765 10.000104,27.520032 9.6466314,26.4673 9.6466314,24.984253 q 0,-1.521468 0.3227355,-2.697147 0.3304201,-1.175679 1.0450481,-2.090097 0.676208,-0.868312 1.744309,-1.352415 1.068101,-0.491788 2.489674,-0.491788 0.453367,0 0.760734,0.03842 0.307367,0.03842 0.622419,0.138315 v 1.467679 h -0.07684 q -0.215157,-0.115263 -0.653155,-0.215158 -0.430315,-0.107578 -0.883681,-0.107578 -1.652099,0 -2.635674,1.037364 -0.983575,1.02968 -1.144942,2.789357 0.645471,-0.391893 1.267889,-0.591681 0.630103,-0.207473 1.45231,-0.207473 0.729997,0 1.283258,0.138315 0.560945,0.130631 1.144943,0.537893 0.676208,0.468734 1.014312,1.183363 0.345788,0.714629 0.345788,1.736625 z m -1.559889,0.06147 q 0,-0.714629 -0.215157,-1.183363 -0.207473,-0.468735 -0.691576,-0.814523 -0.353472,-0.245894 -0.783786,-0.322736 -0.430314,-0.07684 -0.899049,-0.07684 -0.653156,0 -1.214101,0.153684 -0.560945,0.153683 -1.152627,0.476419 -0.01537,0.169052 -0.02305,0.33042 -0.0077,0.153683 -0.0077,0.391893 0,1.2141 0.245893,1.921045 0.253578,0.69926 0.691577,1.106522 0.353472,0.338103 0.760733,0.499471 0.414946,0.153684 0.899049,0.153684 1.114206,0 1.751993,-0.676208 0.637787,-0.683892 0.637787,-1.959466 z"
         id="path3292" />
      <path
         d="m 26.574879,24.50015 q 0.368841,0.330419 0.60705,0.829891 0.23821,0.499472 0.23821,1.290942 0,0.783787 -0.284315,1.436942 -0.284315,0.653155 -0.799155,1.137258 -0.576313,0.537893 -1.360099,0.799155 -0.776103,0.253578 -1.705888,0.253578 -0.952839,0 -1.87494,-0.230525 -0.922102,-0.222842 -1.513783,-0.491788 V 27.91961 h 0.115262 q 0.653155,0.430314 1.536836,0.714628 0.883681,0.284315 1.705888,0.284315 0.484103,0 1.02968,-0.161368 0.545577,-0.161368 0.883681,-0.476419 0.353472,-0.338104 0.522524,-0.745365 0.176736,-0.407262 0.176736,-1.02968 0,-0.614735 -0.199789,-1.014312 -0.192104,-0.407262 -0.537892,-0.637787 -0.345788,-0.23821 -0.837576,-0.322736 -0.491787,-0.09221 -1.060417,-0.09221 h -0.691576 v -1.275574 h 0.537893 q 1.167995,0 1.859571,-0.484103 0.699261,-0.491787 0.699261,-1.429257 0,-0.414946 -0.176736,-0.722313 -0.176737,-0.315051 -0.491788,-0.51484 -0.33042,-0.199789 -0.706944,-0.276631 -0.376525,-0.07684 -0.852944,-0.07684 -0.729997,0 -1.552205,0.261262 -0.822207,0.261262 -1.552204,0.737681 h -0.07684 v -1.605994 q 0.545577,-0.268946 1.45231,-0.491787 0.914418,-0.230525 1.767361,-0.230525 0.837576,0 1.475363,0.153683 0.637787,0.153684 1.152627,0.491788 0.553261,0.36884 0.837575,0.891364 0.284315,0.522525 0.284315,1.221785 0,0.952838 -0.676208,1.667467 -0.668523,0.706944 -1.582941,0.891365 v 0.107578 q 0.368841,0.06147 0.84526,0.261262 0.476419,0.192105 0.806839,0.484104 z"
         id="path3294" />
      <path
         d="m 37.670833,26.820772 q 0,1.483047 -1.160311,2.466622 -1.152627,0.983575 -2.90462,0.983575 -1.859571,0 -2.966093,-0.960523 -1.098838,-0.960522 -1.098838,-2.458937 0,-0.952839 0.553261,-1.721257 0.553261,-0.776102 1.559889,-1.229468 v -0.04611 q -0.922102,-0.491788 -1.367784,-1.075785 -0.437999,-0.583998 -0.437999,-1.459995 0,-1.290942 1.060417,-2.15157 1.060417,-0.860628 2.697147,-0.860628 1.713572,0 2.735568,0.822207 1.021996,0.822207 1.021996,2.090097 0,0.776102 -0.484103,1.529152 -0.484104,0.745365 -1.421573,1.167995 v 0.04611 q 1.075785,0.461051 1.644414,1.137259 0.568629,0.676208 0.568629,1.721256 z m -1.82115,-5.586399 q 0,-0.822207 -0.637787,-1.30631 -0.630103,-0.491788 -1.613678,-0.491788 -0.968207,0 -1.590625,0.461051 -0.614734,0.461051 -0.614734,1.244837 0,0.553261 0.307367,0.960523 0.315051,0.399577 0.945154,0.714628 0.284314,0.138316 0.814523,0.361157 0.537892,0.222841 1.045048,0.36884 0.760734,-0.507155 1.052733,-1.052732 0.291999,-0.545577 0.291999,-1.260206 z m 0.238209,5.732398 q 0,-0.706944 -0.315051,-1.129574 -0.307367,-0.430314 -1.214101,-0.860628 -0.361156,-0.169052 -0.79147,-0.315051 -0.430314,-0.146 -1.144943,-0.407262 -0.691576,0.376525 -1.114206,1.021996 -0.414945,0.645471 -0.414945,1.459994 0,1.037364 0.714628,1.713572 0.714629,0.676208 1.813467,0.676208 1.12189,0 1.790413,-0.576314 0.676208,-0.576313 0.676208,-1.582941 z"
         id="path3296" />
      <path
         d="m 47.852372,26.790035 h -1.698204 v 3.219671 h -1.475362 v -3.219671 h -5.47882 v -1.767361 l 5.540293,-6.454711 h 1.413889 v 6.992604 h 1.698204 z m -3.173566,-1.229468 v -5.163769 l -4.433772,5.163769 z"
         id="path3298" />
    </g>
  </g>
</svg>
