<?xml version="1.0" encoding="UTF-8" standalone="no"?>
<!-- Created with Inkscape (http://www.inkscape.org/) -->

<svg
   width="185"
   height="185"
   viewBox="0 0 48.947916 48.947918"
   version="1.1"
   id="svg1264"
   inkscape:version="1.1.2 (b8e25be833, 2022-02-05)"
   sodipodi:docname="cell32.svg"
   xmlns:inkscape="http://www.inkscape.org/namespaces/inkscape"
   xmlns:sodipodi="http://sodipodi.sourceforge.net/DTD/sodipodi-0.dtd"
   xmlns="http://www.w3.org/2000/svg"
   xmlns:svg="http://www.w3.org/2000/svg">
  <sodipodi:namedview
     id="namedview1266"
     pagecolor="#505050"
     bordercolor="#ffffff"
     borderopacity="1"
     inkscape:pageshadow="0"
     inkscape:pageopacity="0"
     inkscape:pagecheckerboard="1"
     inkscape:document-units="mm"
     showgrid="false"
     inkscape:snap-page="true"
     units="px"
     width="184.909px"
     inkscape:zoom="2.5620932"
     inkscape:cx="77.085408"
     inkscape:cy="105.57774"
     inkscape:window-width="1680"
     inkscape:window-height="998"
     inkscape:window-x="-8"
     inkscape:window-y="-8"
     inkscape:window-maximized="1"
     inkscape:current-layer="layer1"
     inkscape:snap-object-midpoints="true"
     showguides="true"
     inkscape:guide-bbox="true"
     inkscape:snap-bbox="true"
     inkscape:snap-bbox-midpoints="true" />
  <defs
     id="defs1261" />
  <g
     inkscape:label="Слой 1"
     inkscape:groupmode="layer"
     id="layer1"
     transform="translate(0.17313566,0.17313566)">
    <rect
       style="display:inline;fill:#5aa3ba;fill-opacity:1;stroke:#000000;stroke-width:0.346441;stroke-linejoin:round;stroke-miterlimit:4;stroke-dasharray:none;stroke-opacity:1;paint-order:fill markers stroke"
       id="rect1608-06"
       width="48.601475"
       height="48.601475"
       x="8.4843035e-05"
       y="8.4843035e-05"
       ry="10.260313" />
    <g
       aria-label="32"
       id="text5386"
       style="font-size:42.0291px;line-height:1.25;stroke-width:1.05073"
       transform="matrix(1.00049,0,0,1.00049,8.4843035e-5,8.4843035e-5)">
      <path
         d="m 18.522147,24.853189 q 0.985057,0.882447 1.62124,2.216379 0.636183,1.333931 0.636183,3.447699 0,2.093246 -0.759315,3.837618 -0.759315,1.744372 -2.13429,3.037259 -1.539152,1.436541 -3.632398,2.13429 -2.072724,0.677227 -4.5558884,0.677227 -2.5447306,0 -5.0073731,-0.615661 Q 2.227663,38.992862 0.64746741,38.274591 v -4.289102 h 0.30783031 q 1.74437178,1.149233 4.10440418,1.908547 2.3600324,0.759315 4.5558886,0.759315 1.2928875,0 2.7499505,-0.430962 1.457064,-0.430963 2.360033,-1.272365 0.944013,-0.902969 1.395497,-1.990637 0.472007,-1.087667 0.472007,-2.74995 0,-1.641762 -0.533573,-2.708907 Q 15.546454,26.412863 14.622964,25.797202 13.699473,25.16102 12.386063,24.935277 11.072654,24.689013 9.5540244,24.689013 H 7.7070426 V 21.282358 H 9.143584 q 3.119347,0 4.966329,-1.292888 1.867504,-1.313409 1.867504,-3.817095 0,-1.10819 -0.472007,-1.92907 -0.472006,-0.841403 -1.313409,-1.374976 -0.882447,-0.533572 -1.888026,-0.738793 -1.005579,-0.20522 -2.277944,-0.20522 -1.9495921,0 -4.1454483,0.697749 -2.1958562,0.697749 -4.1454482,1.970114 H 1.5299143 V 10.303077 Q 2.9869778,9.5848059 5.4085762,8.9896673 7.8506967,8.3740066 10.128641,8.3740066 q 2.2369,0 3.940228,0.4104404 1.703328,0.4104405 3.078303,1.313409 1.477586,0.985057 2.2369,2.380555 0.759315,1.395497 0.759315,3.263001 0,2.544731 -1.805938,4.453279 -1.785416,1.888025 -4.227536,2.380554 v 0.287308 q 0.985057,0.164176 2.257422,0.697749 1.272366,0.513051 2.154812,1.292887 z"
         id="path1443" />
      <path
         d="M 47.930203,39.567478 H 27.244007 v -4.289102 q 2.154812,-1.846982 4.309624,-3.693964 2.175334,-1.846982 4.042838,-3.673442 3.940228,-3.817095 5.397291,-6.053996 1.457064,-2.257422 1.457064,-4.863719 0,-2.380554 -1.580196,-3.714485 -1.559673,-1.354454 -4.37119,-1.354454 -1.867504,0 -4.042838,0.656705 -2.175334,0.656705 -4.248058,2.011158 h -0.205221 v -4.309624 q 1.457064,-0.7182712 3.878662,-1.3134098 2.442121,-0.5951386 4.720065,-0.5951386 4.699543,0 7.367405,2.2779444 2.667863,2.257422 2.667863,6.136084 0,1.744372 -0.451484,3.263001 -0.430963,1.498108 -1.292888,2.852561 -0.800358,1.272366 -1.888026,2.503687 -1.067145,1.231321 -2.606296,2.729429 -2.195856,2.154812 -4.535367,4.186492 -2.33951,2.011158 -4.37119,3.735008 h 16.438138 z"
         id="path1445" />
    </g>
  </g>
</svg>
