<?xml version="1.0" encoding="UTF-8" standalone="no"?>
<!-- Created with Inkscape (http://www.inkscape.org/) -->

<svg
   width="185"
   height="185"
   viewBox="0 0 48.947916 48.947918"
   version="1.1"
   id="svg1264"
   inkscape:version="1.1.2 (b8e25be833, 2022-02-05)"
   sodipodi:docname="cell65536.svg"
   xmlns:inkscape="http://www.inkscape.org/namespaces/inkscape"
   xmlns:sodipodi="http://sodipodi.sourceforge.net/DTD/sodipodi-0.dtd"
   xmlns="http://www.w3.org/2000/svg"
   xmlns:svg="http://www.w3.org/2000/svg">
  <sodipodi:namedview
     id="namedview1266"
     pagecolor="#505050"
     bordercolor="#ffffff"
     borderopacity="1"
     inkscape:pageshadow="0"
     inkscape:pageopacity="0"
     inkscape:pagecheckerboard="1"
     inkscape:document-units="mm"
     showgrid="false"
     inkscape:snap-page="false"
     units="px"
     width="184.909px"
     inkscape:zoom="2.5620932"
     inkscape:cx="77.085408"
     inkscape:cy="105.57774"
     inkscape:window-width="1680"
     inkscape:window-height="998"
     inkscape:window-x="-8"
     inkscape:window-y="-8"
     inkscape:window-maximized="1"
     inkscape:current-layer="layer1"
     inkscape:snap-object-midpoints="true"
     showguides="true"
     inkscape:guide-bbox="true"
     inkscape:snap-bbox="true"
     inkscape:snap-bbox-midpoints="true" />
  <defs
     id="defs1261" />
  <g
     inkscape:label="Слой 1"
     inkscape:groupmode="layer"
     id="layer1"
     transform="translate(0.17313566,0.17313566)">
    <rect
       style="display:inline;fill:#ff2626;fill-opacity:1;stroke:#000000;stroke-width:0.346441;stroke-linejoin:round;stroke-miterlimit:4;stroke-dasharray:none;stroke-opacity:1;paint-order:fill markers stroke"
       id="rect1608-06"
       width="48.601475"
       height="48.601475"
       x="8.4843035e-05"
       y="8.4843035e-05"
       ry="10.260313" />
    <g
       aria-label="65536 "
       id="text5386"
       style="font-size:14.919px;line-height:1.25;stroke-width:0.372977"
       transform="matrix(1.00049,0,0,1.00049,8.4843035e-5,8.4843035e-5)">
      <path
         d="m 9.158581,26.193776 q 0,1.65362 -1.0927002,2.702612 -1.0854155,1.041707 -2.6661884,1.041707 -0.8013135,0 -1.4569336,-0.247678 Q 3.2871387,29.442738 2.7844966,28.954665 2.1580152,28.350038 1.8156358,27.352038 1.4805411,26.354039 1.4805411,24.948098 q 0,-1.442364 0.305956,-2.556918 0.3132407,-1.114555 0.9907149,-1.98143 0.6410507,-0.823168 1.6536195,-1.282102 1.0125689,-0.466218 2.3602324,-0.466218 0.4297954,0 0.7211821,0.03642 0.2913867,0.03642 0.5900581,0.131124 v 1.391372 H 8.0294574 Q 7.8254867,20.111079 7.4102607,20.016378 7.0023193,19.914393 6.5725239,19.914393 q -1.5662036,0 -2.4986411,0.98343 -0.9324375,0.976145 -1.0854155,2.644334 0.6119121,-0.371518 1.2019702,-0.560919 0.5973428,-0.196686 1.3768022,-0.196686 0.6920435,0 1.2165395,0.131124 0.5317808,0.123839 1.0854155,0.509926 0.6410508,0.444365 0.9615762,1.121839 0.3278101,0.677474 0.3278101,1.646335 z m -1.4787876,0.05828 q 0,-0.677475 -0.2039707,-1.121839 Q 7.2791367,24.68585 6.8202026,24.35804 6.4851079,24.124931 6.0771665,24.052084 q -0.4079414,-0.07285 -0.8523062,-0.07285 -0.6191967,0 -1.1509775,0.145694 -0.5317807,0.145693 -1.0927002,0.451649 -0.014569,0.160263 -0.021854,0.313241 -0.00728,0.145693 -0.00728,0.371518 0,1.150977 0.2331093,1.821167 0.2403941,0.662904 0.6556202,1.048992 0.3350947,0.320525 0.7211821,0.473503 0.393372,0.145694 0.8523061,0.145694 1.0562768,0 1.6609043,-0.641051 0.6046274,-0.648336 0.6046274,-1.85759 z"
         id="path3756" />
      <path
         d="m 18.39554,26.266623 q 0,0.757605 -0.276818,1.449649 -0.276817,0.692043 -0.757605,1.165547 -0.524496,0.509926 -1.252963,0.786744 -0.721182,0.269532 -1.675474,0.269532 -0.888729,0 -1.711897,-0.189401 -0.823167,-0.182117 -1.391371,-0.444365 v -1.537065 h 0.101985 q 0.597343,0.378803 1.398656,0.648336 0.801314,0.262248 1.573489,0.262248 0.517211,0 0.997999,-0.145693 0.488073,-0.145694 0.866876,-0.509927 0.320525,-0.313241 0.480788,-0.750321 0.167547,-0.43708 0.167547,-1.012569 0,-0.560919 -0.196686,-0.947007 -0.189401,-0.386087 -0.531781,-0.619196 -0.378803,-0.276818 -0.925153,-0.386088 -0.539065,-0.116554 -1.209255,-0.116554 -0.64105,0 -1.238393,0.08742 -0.590058,0.08742 -1.019854,0.174832 V 18.8654 h 6.527063 v 1.274817 h -5.121122 v 2.884729 q 0.313241,-0.02914 0.641051,-0.04371 0.32781,-0.01457 0.568204,-0.01457 0.881445,0 1.54435,0.152978 0.662905,0.145694 1.216539,0.524496 0.582774,0.400657 0.903299,1.034423 0.320526,0.633766 0.320526,1.588058 z"
         id="path3758" />
      <path
         d="m 27.880177,26.266623 q 0,0.757605 -0.276818,1.449649 -0.276817,0.692043 -0.757605,1.165547 -0.524496,0.509926 -1.252963,0.786744 -0.721182,0.269532 -1.675474,0.269532 -0.888729,0 -1.711896,-0.189401 -0.823168,-0.182117 -1.391372,-0.444365 v -1.537065 h 0.101985 q 0.597343,0.378803 1.398657,0.648336 0.801313,0.262248 1.573488,0.262248 0.517211,0 0.997999,-0.145693 0.488073,-0.145694 0.866876,-0.509927 0.320525,-0.313241 0.480788,-0.750321 0.167547,-0.43708 0.167547,-1.012569 0,-0.560919 -0.196686,-0.947007 -0.189401,-0.386087 -0.531781,-0.619196 -0.378802,-0.276818 -0.925152,-0.386088 -0.539066,-0.116554 -1.209255,-0.116554 -0.641051,0 -1.238394,0.08742 -0.590058,0.08742 -1.019853,0.174832 V 18.8654 h 6.527062 v 1.274817 h -5.121121 v 2.884729 q 0.31324,-0.02914 0.64105,-0.04371 0.32781,-0.01457 0.568204,-0.01457 0.881445,0 1.54435,0.152978 0.662905,0.145694 1.21654,0.524496 0.582773,0.400657 0.903298,1.034423 0.320526,0.633766 0.320526,1.588058 z"
         id="path3760" />
      <path
         d="m 36.497938,24.489164 q 0.349664,0.313241 0.575488,0.786744 0.225825,0.473503 0.225825,1.223824 0,0.743036 -0.269533,1.362233 -0.269532,0.619197 -0.757605,1.078131 -0.54635,0.509927 -1.289386,0.757605 -0.735752,0.240394 -1.617197,0.240394 -0.903298,0 -1.777458,-0.21854 -0.874161,-0.211255 -1.43508,-0.466218 v -1.522496 h 0.10927 q 0.619197,0.407941 1.456934,0.677474 0.837736,0.269533 1.617196,0.269533 0.458934,0 0.976145,-0.152978 0.517212,-0.152978 0.837737,-0.45165 0.335095,-0.320525 0.495357,-0.706612 0.167548,-0.386088 0.167548,-0.976146 0,-0.582773 -0.189402,-0.961576 -0.182116,-0.386087 -0.509926,-0.604627 -0.32781,-0.225825 -0.794029,-0.305956 -0.466219,-0.08742 -1.005284,-0.08742 h -0.65562 v -1.209255 h 0.509926 q 1.10727,0 1.76289,-0.458934 0.662905,-0.466219 0.662905,-1.354949 0,-0.393372 -0.167548,-0.684758 -0.167547,-0.298672 -0.466218,-0.488073 -0.313241,-0.189401 -0.67019,-0.262248 -0.356948,-0.07285 -0.808598,-0.07285 -0.692043,0 -1.471503,0.247679 -0.779459,0.247679 -1.471503,0.699328 h -0.07285 v -1.522496 q 0.517211,-0.254963 1.376802,-0.466218 0.866875,-0.21854 1.675473,-0.21854 0.794029,0 1.398657,0.145693 0.604627,0.145693 1.0927,0.466219 0.524496,0.349664 0.794029,0.845021 0.269532,0.495358 0.269532,1.158262 0,0.903299 -0.64105,1.580773 -0.633767,0.67019 -1.500642,0.845022 v 0.101985 q 0.349664,0.05828 0.801313,0.247679 0.45165,0.182117 0.764891,0.458934 z"
         id="path3762" />
      <path
         d="m 47.09713,26.193776 q 0,1.65362 -1.0927,2.702612 -1.085416,1.041707 -2.666189,1.041707 -0.801313,0 -1.456933,-0.247678 -0.65562,-0.247679 -1.158262,-0.735752 -0.626482,-0.604627 -0.968861,-1.602627 -0.335095,-0.997999 -0.335095,-2.40394 0,-1.442364 0.305956,-2.556918 0.313241,-1.114555 0.990715,-1.98143 0.641051,-0.823168 1.65362,-1.282102 1.012568,-0.466218 2.360232,-0.466218 0.429795,0 0.721182,0.03642 0.291387,0.03642 0.590058,0.131124 v 1.391372 h -0.07285 q -0.20397,-0.10927 -0.619196,-0.203971 -0.407942,-0.101985 -0.837737,-0.101985 -1.566204,0 -2.498641,0.98343 -0.932438,0.976145 -1.085416,2.644334 0.611912,-0.371518 1.201971,-0.560919 0.597342,-0.196686 1.376802,-0.196686 0.692043,0 1.216539,0.131124 0.531781,0.123839 1.085416,0.509926 0.641051,0.444365 0.961576,1.121839 0.32781,0.677474 0.32781,1.646335 z m -1.478788,0.05828 q 0,-0.677475 -0.20397,-1.121839 -0.196686,-0.444365 -0.65562,-0.772175 -0.335095,-0.233109 -0.743036,-0.305956 -0.407942,-0.07285 -0.852307,-0.07285 -0.619196,0 -1.150977,0.145694 -0.531781,0.145693 -1.0927,0.451649 -0.01457,0.160263 -0.02185,0.313241 -0.0073,0.145693 -0.0073,0.371518 0,1.150977 0.233109,1.821167 0.240394,0.662904 0.65562,1.048992 0.335095,0.320525 0.721183,0.473503 0.393372,0.145694 0.852306,0.145694 1.056277,0 1.660904,-0.641051 0.604627,-0.648336 0.604627,-1.85759 z"
         id="path3764" />
    </g>
  </g>
</svg>
