<?xml version="1.0" encoding="UTF-8" standalone="no"?>
<!-- Created with Inkscape (http://www.inkscape.org/) -->

<svg
   width="185"
   height="185"
   viewBox="0 0 48.947916 48.947918"
   version="1.1"
   id="svg1264"
   inkscape:version="1.1.2 (b8e25be833, 2022-02-05)"
   sodipodi:docname="cell128.svg"
   xmlns:inkscape="http://www.inkscape.org/namespaces/inkscape"
   xmlns:sodipodi="http://sodipodi.sourceforge.net/DTD/sodipodi-0.dtd"
   xmlns="http://www.w3.org/2000/svg"
   xmlns:svg="http://www.w3.org/2000/svg">
  <sodipodi:namedview
     id="namedview1266"
     pagecolor="#505050"
     bordercolor="#ffffff"
     borderopacity="1"
     inkscape:pageshadow="0"
     inkscape:pageopacity="0"
     inkscape:pagecheckerboard="1"
     inkscape:document-units="mm"
     showgrid="false"
     inkscape:snap-page="false"
     units="px"
     width="184.909px"
     inkscape:zoom="2.5620932"
     inkscape:cx="157.48842"
     inkscape:cy="67.327762"
     inkscape:window-width="1680"
     inkscape:window-height="998"
     inkscape:window-x="-8"
     inkscape:window-y="-8"
     inkscape:window-maximized="1"
     inkscape:current-layer="layer1"
     inkscape:snap-object-midpoints="true"
     showguides="true"
     inkscape:guide-bbox="true"
     inkscape:snap-bbox="true"
     inkscape:snap-bbox-midpoints="true" />
  <defs
     id="defs1261" />
  <g
     inkscape:label="Слой 1"
     inkscape:groupmode="layer"
     id="layer1"
     transform="translate(0.17313566,0.17313566)">
    <rect
       style="display:inline;fill:#b670ba;fill-opacity:1;stroke:#000000;stroke-width:0.346441;stroke-linejoin:round;stroke-miterlimit:4;stroke-dasharray:none;stroke-opacity:1;paint-order:fill markers stroke"
       id="rect1608-06"
       width="48.601475"
       height="48.601475"
       x="8.4843035e-05"
       y="8.4843035e-05"
       ry="10.260313" />
    <g
       aria-label="128"
       id="text5386"
       style="font-size:26.4549px;line-height:1.25;stroke-width:0.661372"
       transform="matrix(1.00049,0,0,1.00049,8.4843035e-5,8.4843035e-5)">
      <path
         d="M 12.056027,33.905865 H 1.644577 v -1.96345 H 5.6489809 V 19.050818 H 1.644577 v -1.756771 q 0.8137982,0 1.7438533,-0.129174 0.9300552,-0.142092 1.4080001,-0.400441 0.5942019,-0.322935 0.9300551,-0.813798 0.3487707,-0.50378 0.4004404,-1.343413 h 2.002202 v 17.335194 h 3.9268991 z"
         id="path1867" />
      <path
         d="M 29.972506,33.905865 H 16.951734 v -2.699744 q 1.356331,-1.162568 2.712661,-2.325137 1.369248,-1.162569 2.544734,-2.312221 2.480147,-2.402642 3.397285,-3.810642 0.917137,-1.420918 0.917137,-3.061431 0,-1.498423 -0.994642,-2.338056 -0.981725,-0.85255 -2.751413,-0.85255 -1.175486,0 -2.544734,0.413358 -1.369248,0.413357 -2.673909,1.265908 h -0.129174 v -2.712661 q 0.917138,-0.45211 2.441395,-0.826715 1.537174,-0.374606 2.971009,-0.374606 2.958092,0 4.637358,1.433835 1.679266,1.420918 1.679266,3.862312 0,1.097982 -0.284183,2.053872 -0.271266,0.942972 -0.813798,1.795523 -0.50378,0.800881 -1.188404,1.575927 -0.671706,0.775046 -1.640514,1.718018 -1.382165,1.35633 -2.854752,2.635156 -1.472588,1.265909 -2.751413,2.350973 h 10.346863 z"
         id="path1869" />
      <path
         d="m 46.933094,28.54513 q 0,2.493065 -1.950532,4.146496 -1.937615,1.653431 -4.882789,1.653431 -3.126019,0 -4.986129,-1.614679 -1.847193,-1.614679 -1.847193,-4.133578 0,-1.601761 0.930055,-2.893505 0.930055,-1.30466 2.622239,-2.066789 v -0.0775 q -1.550092,-0.826716 -2.299303,-1.808441 -0.736294,-0.981725 -0.736294,-2.454312 0,-2.170128 1.782606,-3.616881 1.782606,-1.446752 4.534019,-1.446752 2.880587,0 4.598605,1.382165 1.718019,1.382165 1.718019,3.513542 0,1.30466 -0.813798,2.570568 -0.813799,1.252991 -2.389725,1.96345 v 0.0775 q 1.80844,0.775046 2.76433,1.91178 0.95589,1.136734 0.95589,2.893504 z m -3.061431,-9.390973 q 0,-1.382165 -1.072147,-2.195963 -1.05923,-0.826716 -2.712661,-0.826716 -1.627596,0 -2.673908,0.775046 -1.033395,0.775046 -1.033395,2.092624 0,0.930055 0.516697,1.614679 0.529615,0.671707 1.588845,1.201321 0.477945,0.232514 1.369247,0.60712 0.904221,0.374605 1.756771,0.620036 1.278826,-0.85255 1.769688,-1.769688 0.490863,-0.917137 0.490863,-2.118459 z m 0.40044,9.636405 q 0,-1.188404 -0.529615,-1.898863 -0.516697,-0.723376 -2.040954,-1.446752 -0.607119,-0.284184 -1.330495,-0.529615 -0.723377,-0.245431 -1.924698,-0.684624 -1.162569,0.632954 -1.873027,1.718019 -0.697542,1.085064 -0.697542,2.454312 0,1.743853 1.201321,2.880587 1.201322,1.136734 3.048514,1.136734 1.885946,0 3.009762,-0.968807 1.136734,-0.968808 1.136734,-2.660991 z"
         id="path1871" />
    </g>
  </g>
</svg>
