<?xml version="1.0" encoding="UTF-8" standalone="no"?>
<!-- Created with Inkscape (http://www.inkscape.org/) -->

<svg
   width="185"
   height="185"
   viewBox="0 0 48.947916 48.947918"
   version="1.1"
   id="svg1264"
   inkscape:version="1.1.2 (b8e25be833, 2022-02-05)"
   sodipodi:docname="cell131072.svg"
   xmlns:inkscape="http://www.inkscape.org/namespaces/inkscape"
   xmlns:sodipodi="http://sodipodi.sourceforge.net/DTD/sodipodi-0.dtd"
   xmlns="http://www.w3.org/2000/svg"
   xmlns:svg="http://www.w3.org/2000/svg">
  <sodipodi:namedview
     id="namedview1266"
     pagecolor="#505050"
     bordercolor="#ffffff"
     borderopacity="1"
     inkscape:pageshadow="0"
     inkscape:pageopacity="0"
     inkscape:pagecheckerboard="1"
     inkscape:document-units="mm"
     showgrid="false"
     inkscape:snap-page="false"
     units="px"
     width="184.909px"
     inkscape:zoom="2.5620932"
     inkscape:cx="76.695102"
     inkscape:cy="105.57774"
     inkscape:window-width="1680"
     inkscape:window-height="998"
     inkscape:window-x="-8"
     inkscape:window-y="-8"
     inkscape:window-maximized="1"
     inkscape:current-layer="layer1"
     inkscape:snap-object-midpoints="true"
     showguides="true"
     inkscape:guide-bbox="true"
     inkscape:snap-bbox="true"
     inkscape:snap-bbox-midpoints="true" />
  <defs
     id="defs1261" />
  <g
     inkscape:label="Слой 1"
     inkscape:groupmode="layer"
     id="layer1"
     transform="translate(0.17313566,0.17313566)">
    <rect
       style="display:inline;fill:#ff0000;fill-opacity:1;stroke:#000000;stroke-width:0.346441;stroke-linejoin:round;stroke-miterlimit:4;stroke-dasharray:none;stroke-opacity:1;paint-order:fill markers stroke"
       id="rect1608-06"
       width="48.601475"
       height="48.601475"
       x="8.4843035e-05"
       y="8.4843035e-05"
       ry="10.260313" />
    <g
       aria-label="131072 "
       id="text5386"
       style="font-size:13.0998px;line-height:1.25;stroke-width:0.327495"
       transform="matrix(1.00049,0,0,1.00049,8.4843035e-5,8.4843035e-5)">
      <path
         d="M 5.7744949,29.050945 H 0.61900713 V 28.078694 H 2.601887 V 21.6951 H 0.61900713 v -0.869908 q 0.40297237,0 0.86351217,-0.06396 0.4605399,-0.07036 0.6972062,-0.198288 0.2942338,-0.15991 0.4605399,-0.402972 0.1727024,-0.249459 0.1982879,-0.665225 h 0.99144 v 8.583951 h 1.9445016 z"
         id="path3990" />
      <path
         d="m 13.808357,24.464736 q 0.307026,0.275045 0.505314,0.69081 0.198288,0.415765 0.198288,1.074593 0,0.652431 -0.236666,1.196124 -0.236667,0.543693 -0.665224,0.946665 -0.479729,0.447747 -1.132161,0.665225 -0.646035,0.21108 -1.419998,0.21108 -0.793152,0 -1.5607182,-0.191891 -0.7675664,-0.185496 -1.2600882,-0.409369 v -1.336845 h 0.095946 q 0.5436929,0.358198 1.2792774,0.594864 0.735584,0.236666 1.419998,0.236666 0.402972,0 0.857115,-0.134324 0.454144,-0.134324 0.735585,-0.396576 0.294234,-0.281441 0.434954,-0.620449 0.147117,-0.339009 0.147117,-0.857116 0,-0.511711 -0.166306,-0.844323 -0.15991,-0.339009 -0.447747,-0.5309 -0.287837,-0.198288 -0.697206,-0.268648 -0.409369,-0.07676 -0.882702,-0.07676 h -0.575674 v -1.0618 h 0.447747 q 0.972251,0 1.547925,-0.402973 0.582072,-0.409368 0.582072,-1.189728 0,-0.345405 -0.147117,-0.60126 -0.147117,-0.262252 -0.409369,-0.428558 -0.275045,-0.166306 -0.588468,-0.23027 -0.313423,-0.06396 -0.709999,-0.06396 -0.607656,0 -1.2920695,0.217477 -0.6844134,0.217478 -1.2920702,0.614054 h -0.063964 v -1.336845 q 0.4541434,-0.223874 1.2089171,-0.409369 0.7611696,-0.191892 1.4711686,-0.191892 0.697206,0 1.228107,0.127928 0.5309,0.127928 0.959458,0.409369 0.460539,0.307026 0.697206,0.741981 0.236666,0.434954 0.236666,1.017025 0,0.793152 -0.562882,1.388016 -0.556486,0.588468 -1.317656,0.741981 v 0.08955 q 0.307027,0.05117 0.703603,0.217478 0.396576,0.159909 0.671621,0.402972 z"
         id="path3992" />
      <path
         d="m 22.430686,29.050945 h -5.155488 v -0.972251 h 1.98288 V 21.6951 h -1.98288 v -0.869908 q 0.402972,0 0.863512,-0.06396 0.46054,-0.07036 0.697206,-0.198288 0.294234,-0.15991 0.46054,-0.402972 0.172703,-0.249459 0.198288,-0.665225 h 0.99144 v 8.583951 h 1.944502 z"
         id="path3994" />
      <path
         d="m 31.289682,24.285637 q 0,2.564951 -0.805944,3.767472 -0.799549,1.196124 -2.488195,1.196124 -1.714232,0 -2.507384,-1.215313 -0.786755,-1.215314 -0.786755,-3.73549 0,-2.539366 0.799548,-3.748283 0.799549,-1.215313 2.494591,-1.215313 1.714232,0 2.500987,1.234502 0.793152,1.228107 0.793152,3.716301 z m -1.682249,2.90396 q 0.223873,-0.518108 0.30063,-1.215314 0.08315,-0.703602 0.08315,-1.688646 0,-0.972251 -0.08315,-1.688646 -0.07676,-0.716395 -0.307027,-1.215313 -0.223873,-0.492522 -0.614053,-0.741981 -0.383783,-0.249459 -0.99144,-0.249459 -0.60126,0 -0.997836,0.249459 -0.39018,0.249459 -0.62045,0.754773 -0.217477,0.473333 -0.30063,1.234503 -0.07676,0.76117 -0.07676,1.669457 0,0.997836 0.07036,1.669457 0.07036,0.67162 0.30063,1.202521 0.211081,0.498918 0.594864,0.76117 0.390179,0.262251 1.029818,0.262251 0.60126,0 0.997836,-0.249459 0.396576,-0.249459 0.614054,-0.754773 z"
         id="path3996" />
      <path
         d="m 39.656155,20.95312 -4.311165,8.097825 h -1.368826 l 4.586209,-8.404852 h -5.424136 v -1.119368 h 6.517918 z"
         id="path3998" />
      <path
         d="M 47.958664,29.050945 H 41.511106 V 27.7141 q 0.671621,-0.575674 1.343241,-1.151349 0.678017,-0.575675 1.260089,-1.144953 1.228106,-1.189728 1.682249,-1.886935 0.454144,-0.703602 0.454144,-1.515943 0,-0.741981 -0.492522,-1.157746 -0.486125,-0.422162 -1.36243,-0.422162 -0.582072,0 -1.260089,0.204685 -0.678017,0.204684 -1.324052,0.626846 h -0.06396 v -1.343242 q 0.454144,-0.223873 1.208918,-0.409368 0.76117,-0.185496 1.471168,-0.185496 1.464773,0 2.296303,0.709999 0.831531,0.703603 0.831531,1.91252 0,0.543693 -0.140721,1.017025 -0.134324,0.466937 -0.402972,0.889098 -0.249459,0.396576 -0.588468,0.780359 -0.332612,0.383784 -0.812341,0.85072 -0.684413,0.67162 -1.413601,1.304863 -0.729189,0.626846 -1.362431,1.164142 h 5.123506 z"
         id="path4000" />
    </g>
  </g>
</svg>
