<?xml version="1.0" encoding="UTF-8" standalone="no"?>
<!-- Created with Inkscape (http://www.inkscape.org/) -->

<svg
   width="185"
   height="185"
   viewBox="0 0 48.947916 48.947918"
   version="1.1"
   id="svg1264"
   inkscape:version="1.1.2 (b8e25be833, 2022-02-05)"
   sodipodi:docname="cell2048.svg"
   xmlns:inkscape="http://www.inkscape.org/namespaces/inkscape"
   xmlns:sodipodi="http://sodipodi.sourceforge.net/DTD/sodipodi-0.dtd"
   xmlns="http://www.w3.org/2000/svg"
   xmlns:svg="http://www.w3.org/2000/svg">
  <sodipodi:namedview
     id="namedview1266"
     pagecolor="#505050"
     bordercolor="#ffffff"
     borderopacity="1"
     inkscape:pageshadow="0"
     inkscape:pageopacity="0"
     inkscape:pagecheckerboard="1"
     inkscape:document-units="mm"
     showgrid="false"
     inkscape:snap-page="false"
     units="px"
     width="184.909px"
     inkscape:zoom="2.5620932"
     inkscape:cx="76.695102"
     inkscape:cy="105.57774"
     inkscape:window-width="1680"
     inkscape:window-height="998"
     inkscape:window-x="-8"
     inkscape:window-y="-8"
     inkscape:window-maximized="1"
     inkscape:current-layer="layer1"
     inkscape:snap-object-midpoints="true"
     showguides="true"
     inkscape:guide-bbox="true"
     inkscape:snap-bbox="true"
     inkscape:snap-bbox-midpoints="true" />
  <defs
     id="defs1261" />
  <g
     inkscape:label="Слой 1"
     inkscape:groupmode="layer"
     id="layer1"
     transform="translate(0.17313566,0.17313566)">
    <rect
       style="display:inline;fill:#67e677;fill-opacity:1;stroke:#000000;stroke-width:0.346441;stroke-linejoin:round;stroke-miterlimit:4;stroke-dasharray:none;stroke-opacity:1;paint-order:fill markers stroke"
       id="rect1608-06"
       width="48.601475"
       height="48.601475"
       x="8.4843035e-05"
       y="8.4843035e-05"
       ry="10.260313" />
    <g
       aria-label="2048"
       id="text5386"
       style="font-size:19.4266px;line-height:1.25;stroke-width:0.485666"
       transform="matrix(1.00049,0,0,1.00049,8.4843035e-5,8.4843035e-5)">
      <path
         d="M 10.491966,31.350897 H 0.93043668 v -1.9825 Q 1.9264293,28.514689 2.922422,27.660981 q 1.0054783,-0.853708 1.8686719,-1.69793 1.8212437,-1.76433 2.4947245,-2.798265 0.6734807,-1.043421 0.6734807,-2.248098 0,-1.100335 -0.7303946,-1.716901 -0.720909,-0.626053 -2.0204422,-0.626053 -0.8631937,0 -1.868672,0.303541 -1.0054783,0.30354 -1.9635283,0.929593 H 1.281405 v -1.991986 q 0.6734808,-0.331997 1.7927868,-0.607081 1.1287917,-0.275083 2.1816982,-0.275083 2.1722125,0 3.4053463,1.052906 1.2331337,1.043421 1.2331337,2.836208 0,0.806279 -0.2086841,1.508217 -0.1991986,0.692452 -0.5975956,1.318505 -0.3699402,0.58811 -0.8726793,1.157248 -0.4932535,0.569139 -1.2046768,1.261591 -1.014964,0.995993 -2.0963274,1.935071 -1.0813635,0.929594 -2.0204422,1.726388 h 7.5980004 z"
         id="path2730" />
      <path
         d="m 22.823303,24.284092 q 0,3.803743 -1.195191,5.587044 -1.185705,1.773816 -3.689916,1.773816 -2.542152,0 -3.718372,-1.802273 -1.166734,-1.802272 -1.166734,-5.539616 0,-3.765801 1.185705,-5.558587 1.185706,-1.802273 3.699401,-1.802273 2.542153,0 3.708887,1.83073 1.17622,1.821243 1.17622,5.511159 z m -2.494724,4.306482 q 0.331997,-0.768337 0.445825,-1.802272 0.123313,-1.043421 0.123313,-2.50421 0,-1.441818 -0.123313,-2.50421 -0.113828,-1.062392 -0.455311,-1.802273 -0.331997,-0.730394 -0.910622,-1.100334 -0.569138,-0.369941 -1.470275,-0.369941 -0.89165,0 -1.47976,0.369941 -0.578624,0.36994 -0.920108,1.119306 -0.322511,0.701937 -0.445825,1.830729 -0.113828,1.128792 -0.113828,2.475753 0,1.479761 0.104343,2.475753 0.104342,0.995993 0.445825,1.783301 0.313026,0.739881 0.882165,1.128792 0.578624,0.388912 1.527188,0.388912 0.891651,0 1.479761,-0.369941 0.58811,-0.36994 0.910622,-1.119306 z"
         id="path2732" />
      <path
         d="m 35.515095,27.376412 h -2.096328 v 3.974485 h -1.821243 v -3.974485 h -6.763265 v -2.181698 l 6.83915,-7.967942 h 1.745358 v 8.631937 h 2.096328 z m -3.917571,-1.517703 v -6.374353 l -5.473217,6.374353 z"
         id="path2734" />
      <path
         d="m 47.647234,27.414354 q 0,1.83073 -1.432332,3.044892 -1.422847,1.214163 -3.585573,1.214163 -2.295526,0 -3.661459,-1.185706 -1.356447,-1.185705 -1.356447,-3.035406 0,-1.17622 0.682966,-2.124784 0.682967,-0.95805 1.925586,-1.517703 V 23.7529 q -1.138277,-0.607081 -1.688445,-1.32799 -0.540681,-0.720909 -0.540681,-1.802273 0,-1.593588 1.309018,-2.65598 1.309019,-1.062392 3.329462,-1.062392 2.115298,0 3.376889,1.014964 1.261591,1.014963 1.261591,2.580095 0,0.95805 -0.597596,1.887643 -0.597596,0.920107 -1.754844,1.441818 v 0.05691 q 1.32799,0.569138 2.029928,1.403875 0.701937,0.834737 0.701937,2.124784 z m -2.248097,-6.896063 q 0,-1.014964 -0.787309,-1.612559 -0.777823,-0.607082 -1.991985,-0.607082 -1.195191,0 -1.963528,0.569139 -0.758852,0.569139 -0.758852,1.536674 0,0.682967 0.379426,1.185706 0.388911,0.493253 1.166734,0.882165 0.350969,0.170741 1.005478,0.445825 0.663995,0.275084 1.290048,0.455311 0.939079,-0.626053 1.299533,-1.299533 0.360455,-0.673481 0.360455,-1.555646 z m 0.294055,7.076291 q 0,-0.87268 -0.388912,-1.39439 -0.379425,-0.531196 -1.498732,-1.062392 -0.445825,-0.208684 -0.977021,-0.388912 -0.531196,-0.180227 -1.413361,-0.502739 -0.853708,0.464797 -1.375418,1.261591 -0.512225,0.796794 -0.512225,1.802272 0,1.280562 0.882165,2.115299 0.882165,0.834737 2.238612,0.834737 1.384904,0 2.210155,-0.711424 0.834737,-0.711423 0.834737,-1.954042 z"
         id="path2736" />
    </g>
  </g>
</svg>
